<?xml version="1.0" standalone="no"?>
<!DOCTYPE svg PUBLIC "-//W3C//DTD SVG 20010904//EN"
 "http://www.w3.org/TR/2001/REC-SVG-20010904/DTD/svg10.dtd">
<svg version="1.0" xmlns="http://www.w3.org/2000/svg"
 width="500.000000pt" height="500.000000pt" viewBox="0 0 500.000000 500.000000"
 preserveAspectRatio="xMidYMid meet">

<g transform="translate(0.000000,500.000000) scale(0.100000,-0.100000)"
fill="#000000" stroke="none">
<path d="M3523 2475 c-117 -83 -253 -146 -368 -170 -68 -14 -107 -16 -255 -8
-361 17 -491 -1 -811 -113 -369 -129 -364 -127 -492 -128 l-118 -1 3 -305 3
-305 27 -42 c31 -47 77 -85 131 -108 53 -22 505 -22 568 0 60 21 104 58 136
113 l28 47 5 240 5 240 195 2 c248 2 295 6 405 38 138 40 323 133 309 156 -3
5 1 6 9 3 19 -7 173 145 224 221 47 71 114 200 100 194 -1 -1 -48 -34 -104
-74z"/>
</g>
</svg>
